<svg width="800px" height="800px" viewBox="0 0 26 23" fill="none" xmlns="http://www.w3.org/2000/svg">
<path d="M21.2727 6.9V4.6H18.9091V2.3H21.2727V0H23.6364V2.3H26V4.6H23.6364V6.9H21.2727ZM2.36364 23C1.71364 23 1.15739 22.775 0.694909 22.3249C0.231636 21.8741 0 21.3325 0 20.7V6.9C0 6.2675 0.231636 5.72623 0.694909 5.2762C1.15739 4.8254 1.71364 4.6 2.36364 4.6H6.08636L8.27273 2.3H15.3636V4.6H9.30682L7.15 6.9H2.36364V20.7H21.2727V10.35H23.6364V20.7C23.6364 21.3325 23.4051 21.8741 22.9426 22.3249C22.4794 22.775 21.9227 23 21.2727 23H2.36364ZM11.8182 18.975C13.2955 18.975 14.5513 18.4721 15.5858 17.4662C16.6195 16.4596 17.1364 15.2375 17.1364 13.8C17.1364 12.3625 16.6195 11.1404 15.5858 10.1338C14.5513 9.12793 13.2955 8.625 11.8182 8.625C10.3409 8.625 9.08503 9.12793 8.05054 10.1338C7.01685 11.1404 6.5 12.3625 6.5 13.8C6.5 15.2375 7.01685 16.4596 8.05054 17.4662C9.08503 18.4721 10.3409 18.975 11.8182 18.975ZM11.8182 16.675C10.9909 16.675 10.2917 16.3971 9.72045 15.8412C9.14924 15.2854 8.86364 14.605 8.86364 13.8C8.86364 12.995 9.14924 12.3146 9.72045 11.7587C10.2917 11.2029 10.9909 10.925 11.8182 10.925C12.6455 10.925 13.3447 11.2029 13.9159 11.7587C14.4871 12.3146 14.7727 12.995 14.7727 13.8C14.7727 14.605 14.4871 15.2854 13.9159 15.8412C13.3447 16.3971 12.6455 16.675 11.8182 16.675Z" fill="#7B7B7B"/>
</svg>
