<svg width="800px" height="800px" viewBox="0 0 123 123" fill="none" xmlns="http://www.w3.org/2000/svg">
<g id="exclamation-folder 1">
<g id="Group">
<path id="Vector" d="M66.4729 9.39276C62.9895 9.84921 59.9145 11.2666 56.2629 14.1014C55.1098 14.9902 53.5242 16.0473 52.7314 16.4316L51.29 17.1764L33.5127 17.2965C14.318 17.4406 15.4471 17.3685 12.7805 18.7139C11.267 19.4826 9.05684 21.6928 8.21602 23.2543C6.99082 25.5365 6.72656 27.1461 6.72656 32.4793V37.2359L6.07793 37.3801C4.75664 37.6684 4.42031 37.7885 3.41133 38.3891C1.56152 39.4461 0 42.1367 0 44.2748C0 45.6441 8.64844 103.421 9.03281 104.694C9.5373 106.279 10.9547 107.913 12.5883 108.778L13.8135 109.426L45.2842 109.546L76.7549 109.667L78.5086 110.579C82.5686 112.67 87.0369 113.727 91.8896 113.727C98.5201 113.727 103.685 112.213 109.066 108.682C112.934 106.159 116.37 102.58 118.724 98.6158C120.069 96.3816 121.366 93.2105 122.039 90.568C125.114 78.34 120.357 65.3674 110.075 57.9922C109.283 57.4396 109.114 57.1754 109.211 56.6949C110.003 52.2266 110.988 44.3709 110.868 43.482C110.652 41.9926 109.835 40.407 108.778 39.374C107.841 38.4611 106.039 37.4762 105.295 37.4762C104.31 37.4521 104.31 37.3801 104.214 28.5875C104.118 21.2844 104.046 19.867 103.685 18.7379C102.484 15.0143 100.106 12.2035 96.7664 10.5939C95.6854 10.0654 94.1238 9.5369 93.3551 9.39276C91.6254 9.08046 68.8992 9.08046 66.4729 9.39276ZM92.8506 18.2334C94.0518 18.7619 95.0367 19.891 95.373 21.0922C95.5172 21.6207 95.6133 25.1041 95.6133 29.5965V37.2359H55.4941H15.375V32.6715C15.375 27.5545 15.4951 27.0019 16.8885 26.2572C17.5852 25.8488 19.0266 25.8248 35.4346 25.7047C52.7314 25.5846 53.26 25.5605 54.5332 25.0801C56.8154 24.2152 58.2328 23.3984 60.9234 21.3805C62.3648 20.2994 63.9744 19.1943 64.5029 18.906C66.4969 17.873 67.2896 17.825 79.8779 17.801C91.0488 17.7769 91.9617 17.825 92.8506 18.2334ZM95.301 59.6018C105.151 60.923 112.958 67.9859 115.361 77.7635C116.273 81.5111 116.033 86.7482 114.784 90.4478C112.262 97.823 105.967 103.853 98.4961 105.943C95.8775 106.688 90.6404 106.88 87.9018 106.327C81.6797 105.054 76.5627 101.763 72.9832 96.6939C69.9803 92.4658 68.683 88.2857 68.683 82.8805C68.707 68.7307 81.3193 57.7039 95.301 59.6018Z" fill="#858585"/>
<path id="Vector_2" d="M90.2561 65.608C86.2442 66.0644 82.7848 67.7701 79.878 70.725C76.5628 74.0883 75.0253 77.5236 74.785 82.04C74.2565 91.8416 81.5596 100.01 91.2891 100.586C99.2409 101.043 106.52 96.0937 108.994 88.5263C109.475 87.0609 109.643 85.9318 109.739 83.7937C109.883 80.2623 109.427 78.1482 107.913 75.1213C107.024 73.3195 106.424 72.5267 104.646 70.725C102.82 68.8992 102.076 68.3467 100.25 67.4338C97.0547 65.8482 93.5954 65.2236 90.2561 65.608ZM93.8596 69.5719C94.7725 70.0043 95.277 70.6529 95.5893 71.758C95.8536 72.6469 94.7725 87.0369 94.3881 87.9978C94.0758 88.7426 93.0669 89.3672 92.154 89.3672C91.3131 89.3672 90.136 88.2861 89.9678 87.3732C89.6795 85.6435 88.8387 73.2955 88.9588 72.2385C89.1751 69.8601 91.6254 68.5148 93.8596 69.5719ZM93.7635 91.4812C94.7965 92.1779 95.1088 92.7545 95.1329 93.9797C95.1569 97.0306 91.121 98.0396 89.7036 95.349C88.3583 92.7304 91.3372 89.8957 93.7635 91.4812Z" fill="#858585"/>
</g>
</g>
</svg>
