<svg width="800px" height="800px" viewBox="0 0 25 25" fill="none" xmlns="http://www.w3.org/2000/svg">
<g id="home">
<path id="Vector" d="M9.5248 21.648V18.4534C9.52479 17.6439 10.1831 16.9862 10.9985 16.9811H13.9924C14.8114 16.9811 15.4754 17.6403 15.4754 18.4534V21.6388C15.4753 22.3409 16.0459 22.9116 16.7531 22.9167H18.7957C19.7497 22.9191 20.6654 22.5446 21.3409 21.8757C22.0163 21.2069 22.3959 20.2987 22.3959 19.3516V10.2769C22.3959 9.51187 22.0543 8.78617 21.4632 8.29532L14.524 2.78571C13.311 1.82201 11.5786 1.85314 10.4015 2.85979L3.61155 8.29532C2.99252 8.7717 2.62253 9.49955 2.60425 10.2769V19.3423C2.60425 21.3164 4.2161 22.9167 6.20443 22.9167H8.20038C8.54089 22.9191 8.8683 22.7865 9.10995 22.5484C9.3516 22.3102 9.4875 21.9861 9.48749 21.648H9.5248Z" fill="#A8A8A8"/>
</g>
</svg>
